<?xml version="1.0" encoding="UTF-8"?>
<svg width="800" height="450" viewBox="0 0 800 450" fill="none" xmlns="http://www.w3.org/2000/svg">
  <defs>
    <linearGradient id="g" x1="0" y1="0" x2="1" y2="1">
      <stop offset="0%" stop-color="#eef2f7"/>
      <stop offset="100%" stop-color="#e3e9f2"/>
    </linearGradient>
  </defs>
  <rect width="800" height="450" rx="12" fill="url(#g)"/>
  <g opacity="0.08">
    <rect x="80" y="90" width="640" height="270" rx="8" fill="#000"/>
    <circle cx="140" cy="150" r="28" fill="#000"/>
    <rect x="180" y="132" width="180" height="16" rx="8" fill="#000"/>
    <rect x="180" y="156" width="260" height="12" rx="6" fill="#000"/>
  </g>
  <g>
    <circle cx="110" cy="335" r="6" fill="#98a6b3"/>
    <circle cx="130" cy="335" r="6" fill="#98a6b3"/>
    <circle cx="150" cy="335" r="6" fill="#98a6b3"/>
  </g>
  <g>
    <rect x="315" y="195" width="170" height="60" rx="8" fill="#2563eb"/>
    <g transform="translate(328 212)">
      <path d="M8 0h8l10 28h-8l-2-6H8l-2 6H0L8 0zm9 16-4-10-4 10h8z" fill="#fff"/>
      <rect x="26" y="6" width="2" height="16" fill="#fff" opacity="0.7"/>
      <path d="M34 6h14c4 0 7 3 7 7s-3 7-7 7H34V6zm13 10c2 0 3-1 3-3s-1-3-3-3h-9v6h9z" fill="#fff" opacity="0.9"/>
    </g>
  </g>
  <text x="400" y="300" text-anchor="middle" font-family="Inter, Arial, sans-serif" font-size="18" fill="#6b7280">
    LooMix.Click — Görsel bulunamadı
  </text>
</svg>
